<svg width="29" height="37" viewBox="0 0 29 37" fill="none" xmlns="http://www.w3.org/2000/svg">
<path d="M19.9922 2H21C21.5523 2 22 1.55228 22 1V1C22 0.447715 21.5523 1.38101e-07 21 1.38101e-07H19.9922H2.00784H1C0.447715 1.38101e-07 2.15603e-07 0.447715 2.15603e-07 1V1C2.15603e-07 1.55228 0.447715 2 1 2H2.00784V5.77147C2.00784 8.96284 5.76776 13.4101 8.25247 16C5.76776 18.5905 2.00784 23.0365 2.00784 26.2278V30H1C0.447715 30 2.15603e-07 30.4477 2.15603e-07 31V31C2.15603e-07 31.5523 0.447715 32 1 32H2.00784H19.9915H20.9993C21.5516 32 21.9993 31.5523 21.9993 31V31C21.9993 30.4477 21.5516 30 20.9993 30H19.9915V26.2278C19.9915 23.0365 16.2315 18.5899 13.7468 16C16.2315 13.4095 19.9915 8.96284 19.9915 5.77147L19.9922 2ZM17.9843 26.2285V30H4.01567V26.2285C4.01567 23.8907 7.19486 20.0136 9.66403 17.4182C10.1452 16.9127 11 17 11 17C11 17 11.8548 16.9127 12.336 17.4182C14.8051 20.0143 17.9843 23.8907 17.9843 26.2285ZM17.9843 5.77217C17.9843 8.11 14.8051 11.9871 12.336 14.5832C11.8548 15.0887 11 15 11 15C11 15 10.1452 15.088 9.66403 14.5832C7.19486 11.9871 4.01567 8.11 4.01567 5.77217V2H17.9836L17.9843 5.77217Z" fill="#DE7900"/>
<mask id="path-3-outside-1" maskUnits="userSpaceOnUse" x="-3" y="-3" width="20" height="19" fill="black">
<rect fill="white" x="-3" y="-3" width="20" height="19"/>
<path d="M13.8087 1.58824C14.1336 1.14159 14.0349 0.516176 13.5882 0.191332C13.1416 -0.133505 12.5161 -0.03475 12.1913 0.411898L4.96219 10.352L1.78092 6.37538C1.43589 5.94412 0.806613 5.87419 0.375339 6.2192C-0.0559358 6.56421 -0.125821 7.19351 0.21915 7.62477L4.20468 12.6067C4.23691 12.6489 4.27286 12.6889 4.31241 12.7263C4.34403 12.7563 4.37729 12.7837 4.41184 12.8088C4.78434 13.0797 5.28116 13.056 5.6243 12.7816C5.62448 12.7814 5.62412 12.7817 5.6243 12.7816C5.65872 12.754 5.69132 12.724 5.7211 12.6931L13.8087 1.58824Z"/>
<path d="M13.8087 1.58824L5.82267 12.5691Z"/>
</mask>
<path d="M13.8087 1.58824C14.1336 1.14159 14.0349 0.516176 13.5882 0.191332C13.1416 -0.133505 12.5161 -0.03475 12.1913 0.411898L4.96219 10.352L1.78092 6.37538C1.43589 5.94412 0.806613 5.87419 0.375339 6.2192C-0.0559358 6.56421 -0.125821 7.19351 0.21915 7.62477L4.20468 12.6067C4.23691 12.6489 4.27286 12.6889 4.31241 12.7263C4.34403 12.7563 4.37729 12.7837 4.41184 12.8088C4.78434 13.0797 5.28116 13.056 5.6243 12.7816C5.62448 12.7814 5.62412 12.7817 5.6243 12.7816C5.65872 12.754 5.69132 12.724 5.7211 12.6931L13.8087 1.58824Z" transform="translate(12.5 21.5)" fill="#DE7900"/>
<path d="M13.8087 1.58824L5.82267 12.5691Z" transform="translate(12.5 21.5)" fill="#DE7900"/>
<path d="M13.5882 0.191332L14.7646 -1.42613L14.7646 -1.42615L13.5882 0.191332ZM13.8087 1.58824L15.4262 2.76459L15.4262 2.76456L13.8087 1.58824ZM12.1913 0.411898L13.8088 1.58824L13.8088 1.58823L12.1913 0.411898ZM4.96219 10.352L3.40046 11.6014L5.03793 13.6482L6.57966 11.5283L4.96219 10.352ZM1.78092 6.37538L3.34265 5.12598L3.34261 5.12593L1.78092 6.37538ZM0.21915 7.62477L-1.34265 8.87407L-1.34259 8.87415L0.21915 7.62477ZM4.20468 12.6067L5.79439 11.3931L5.78061 11.375L5.76642 11.3573L4.20468 12.6067ZM4.31241 12.7263L5.68866 11.2751L5.68551 11.2721L4.31241 12.7263ZM4.41184 12.8088L3.23481 14.4258L3.23548 14.4263L4.41184 12.8088ZM5.7211 12.6931L7.16172 14.0804L7.25696 13.9815L7.33779 13.8705L5.7211 12.6931ZM4.20519 11.3927C3.55552 12.286 3.75302 13.5369 4.64632 14.1865C5.53962 14.8362 6.79046 14.6387 7.44014 13.7454L4.20519 11.3927ZM12.4119 1.8088C11.9651 1.48385 11.8666 0.85841 12.1913 0.411926L15.4262 2.76456C16.4006 1.42477 16.1047 -0.451498 14.7646 -1.42613L12.4119 1.8088ZM13.8088 1.58823C13.4839 2.03491 12.8585 2.13364 12.4119 1.80881L14.7646 -1.42615C13.4246 -2.40065 11.5483 -2.10441 10.5738 -0.764433L13.8088 1.58823ZM6.57966 11.5283L13.8088 1.58824L10.5738 -0.764445L3.34472 9.17562L6.57966 11.5283ZM0.219181 7.62477L3.40046 11.6014L6.52393 9.10257L3.34265 5.12598L0.219181 7.62477ZM1.62471 7.78096C1.19344 8.12596 0.56419 8.056 0.219223 7.62482L3.34261 5.12593C2.30758 3.83224 0.419783 3.62243 -0.874028 4.65745L1.62471 7.78096ZM1.78095 6.37546C2.12583 6.80661 2.05607 7.43588 1.62471 7.78096L-0.874028 4.65745C-2.16794 5.69255 -2.37748 7.58041 -1.34265 8.87407L1.78095 6.37546ZM5.76642 11.3573L1.78089 6.37538L-1.34259 8.87415L2.64294 13.8561L5.76642 11.3573ZM5.68551 11.2721C5.72488 11.3093 5.76132 11.3498 5.79439 11.3931L2.61498 13.8203C2.71251 13.9481 2.82084 14.0686 2.93931 14.1805L5.68551 11.2721ZM5.58886 11.1918C5.6192 11.2139 5.65316 11.2414 5.68866 11.2751L2.93616 14.1775C3.0349 14.2711 3.13538 14.3534 3.23481 14.4258L5.58886 11.1918ZM4.37516 11.2196C4.71752 10.9458 5.21333 10.9187 5.58819 11.1913L3.23548 14.4263C4.35534 15.2407 5.8448 15.1662 6.87344 14.3435L4.37516 11.2196ZM4.34393 11.2451C4.34393 11.2451 4.34393 11.2451 4.34393 11.2451C4.34393 11.2451 4.34393 11.2451 4.34393 11.2451C4.34393 11.2451 4.34393 11.2451 4.34393 11.2451C4.34393 11.2451 4.34393 11.2451 4.34393 11.2451C4.34393 11.2451 4.34393 11.2451 4.34393 11.2451C4.34393 11.2451 4.34393 11.2451 4.34393 11.2451C4.34393 11.2451 4.34393 11.2451 4.34392 11.2451C4.34392 11.2451 4.34392 11.2451 4.34392 11.2451C4.34392 11.2451 4.34392 11.2451 4.34392 11.2451C4.34392 11.2451 4.34392 11.2451 4.34392 11.2451C4.34392 11.2451 4.34392 11.2451 4.34392 11.2451C4.34392 11.2451 4.34392 11.2451 4.34392 11.2451C4.34392 11.2451 4.34392 11.2451 4.34392 11.2451C4.34392 11.2451 4.34392 11.2451 4.34392 11.2451C4.34392 11.2451 4.34392 11.2451 4.34392 11.2451C4.34392 11.2451 4.34392 11.2452 4.34392 11.2452C4.34392 11.2452 4.34392 11.2452 4.34392 11.2452C4.34392 11.2452 4.34392 11.2452 4.34391 11.2452C4.34391 11.2452 4.34391 11.2452 4.34391 11.2452C4.34391 11.2452 4.34391 11.2452 4.34391 11.2452C4.34391 11.2452 4.34391 11.2452 4.34391 11.2452C4.34391 11.2452 4.34391 11.2452 4.34391 11.2452C4.34391 11.2452 4.34391 11.2452 4.34391 11.2452C4.34391 11.2452 4.34391 11.2452 4.34391 11.2452C4.34391 11.2452 4.34391 11.2452 4.34391 11.2452C4.34391 11.2452 4.34391 11.2452 4.34391 11.2452C4.34391 11.2452 4.34391 11.2452 4.34391 11.2452C4.34391 11.2452 4.34391 11.2452 4.34391 11.2452C4.34391 11.2452 4.34391 11.2452 4.34391 11.2452C4.34391 11.2452 4.34391 11.2452 4.34391 11.2452C4.34391 11.2452 4.3439 11.2452 4.3439 11.2452C4.3439 11.2452 4.3439 11.2452 4.3439 11.2452C4.3439 11.2452 4.3439 11.2452 4.3439 11.2452C4.3439 11.2452 4.3439 11.2452 4.3439 11.2452C4.3439 11.2452 4.3439 11.2452 4.3439 11.2452C4.3439 11.2452 4.3439 11.2452 4.3439 11.2452C4.3439 11.2452 4.3439 11.2452 4.3439 11.2452C4.3439 11.2452 4.3439 11.2452 4.3439 11.2452C4.3439 11.2452 4.3439 11.2452 4.3439 11.2452C4.3439 11.2452 4.3439 11.2452 4.3439 11.2452C4.3439 11.2452 4.3439 11.2452 4.3439 11.2452C4.3439 11.2452 4.3439 11.2452 4.3439 11.2452C4.3439 11.2452 4.3439 11.2452 4.3439 11.2452C4.3439 11.2452 4.3439 11.2452 4.3439 11.2452C4.3439 11.2452 4.3439 11.2452 4.3439 11.2452C4.3439 11.2452 4.3439 11.2452 4.3439 11.2452C4.3439 11.2452 4.34389 11.2452 4.34389 11.2452C4.34389 11.2452 4.34389 11.2452 4.34389 11.2452C4.34389 11.2452 4.34389 11.2452 4.34389 11.2452C4.34389 11.2452 4.34389 11.2452 4.34389 11.2452C4.34389 11.2452 4.34389 11.2452 4.34389 11.2452C4.34389 11.2452 4.34389 11.2452 4.34389 11.2452C4.34389 11.2452 4.34389 11.2452 4.34389 11.2452C4.34389 11.2452 4.34389 11.2452 4.34389 11.2452C4.34389 11.2452 4.34389 11.2452 4.34389 11.2452C4.34389 11.2452 4.34389 11.2452 4.34389 11.2452C4.34389 11.2452 4.34389 11.2452 4.34389 11.2452C4.34389 11.2452 4.34389 11.2452 4.34389 11.2452C4.34389 11.2452 4.34389 11.2452 4.34389 11.2452C4.34389 11.2452 4.34389 11.2452 4.34389 11.2452C4.34389 11.2452 4.34389 11.2452 4.34389 11.2452C4.34389 11.2452 4.34389 11.2452 4.34389 11.2452C4.34389 11.2452 4.34389 11.2452 4.34389 11.2452C4.34389 11.2452 4.34389 11.2452 4.34389 11.2452C4.34389 11.2452 4.34389 11.2452 4.34389 11.2452C4.34389 11.2452 4.34389 11.2452 4.34389 11.2452C4.34389 11.2452 4.34389 11.2452 4.34389 11.2452C4.34389 11.2452 4.34389 11.2452 4.34389 11.2452C4.34389 11.2452 4.34389 11.2452 4.34389 11.2452C4.34389 11.2452 4.34389 11.2452 4.34389 11.2452C4.34388 11.2452 4.34388 11.2452 4.34388 11.2452C4.34388 11.2452 4.34388 11.2452 4.34388 11.2452C4.34388 11.2452 4.34388 11.2452 4.34388 11.2452C4.34388 11.2452 4.34388 11.2452 4.34388 11.2452C4.34388 11.2452 4.34388 11.2452 4.34388 11.2452C4.34388 11.2452 4.34388 11.2452 4.34388 11.2452C4.34388 11.2452 4.34388 11.2452 4.34388 11.2452C4.34388 11.2452 4.34388 11.2452 4.34388 11.2452C4.34388 11.2452 4.34388 11.2452 4.34388 11.2452C4.34388 11.2452 4.34388 11.2452 4.34388 11.2452C4.34388 11.2452 4.34388 11.2452 4.34388 11.2452C4.34388 11.2452 4.34388 11.2452 4.34388 11.2452C4.34388 11.2452 4.34388 11.2452 4.34388 11.2452C4.34388 11.2452 4.34388 11.2452 4.34388 11.2452C4.34388 11.2452 4.34388 11.2452 4.34388 11.2452C4.34388 11.2452 4.34388 11.2452 4.34388 11.2452C4.34388 11.2452 4.34388 11.2452 4.34388 11.2452C4.34388 11.2452 4.34388 11.2452 4.34388 11.2452C4.34388 11.2452 4.34388 11.2452 4.34388 11.2452C4.34388 11.2452 4.34388 11.2452 4.34388 11.2452C4.34388 11.2452 4.34388 11.2452 4.34388 11.2452C4.34388 11.2452 4.34388 11.2452 4.34388 11.2452C4.34388 11.2452 4.34388 11.2452 4.34388 11.2452C4.34388 11.2452 4.34388 11.2452 4.34388 11.2452C4.34388 11.2452 4.34388 11.2452 4.34388 11.2452C4.34388 11.2452 4.34388 11.2452 4.34388 11.2452C4.34388 11.2452 4.34388 11.2452 4.34388 11.2452C4.34388 11.2452 4.34388 11.2452 4.34388 11.2452C4.34388 11.2452 4.34388 11.2452 4.34388 11.2452C4.34388 11.2452 4.34388 11.2452 4.34388 11.2452C4.34388 11.2452 4.34388 11.2452 4.34388 11.2452C4.34388 11.2452 4.34388 11.2452 4.34388 11.2452C4.34388 11.2452 4.34388 11.2452 4.34388 11.2452C4.34388 11.2452 4.34388 11.2452 4.34388 11.2452C4.34388 11.2452 4.34388 11.2452 4.34388 11.2452C4.34388 11.2452 4.34388 11.2452 4.34388 11.2452C4.34388 11.2452 4.34388 11.2452 4.34388 11.2452C4.34388 11.2452 4.34388 11.2452 4.34388 11.2452C5.62425 10.7816 6.90462 14.3181 6.90462 14.3181C6.90462 14.3181 6.90462 14.3181 6.90462 14.3181C6.90462 14.3181 6.90462 14.3181 6.90462 14.3181C6.90462 14.3181 6.90462 14.3181 6.90462 14.3181C6.90462 14.3181 6.90462 14.3181 6.90462 14.3181C6.90462 14.3181 6.90462 14.3181 6.90462 14.3181C6.90462 14.3181 6.90462 14.3181 6.90462 14.3181C6.90462 14.3181 6.90462 14.3181 6.90462 14.3181C6.90462 14.3181 6.90462 14.3181 6.90462 14.3181C6.90462 14.3181 6.90462 14.3181 6.90462 14.3181C6.90462 14.3181 6.90462 14.3181 6.90462 14.3181C6.90462 14.3181 6.90462 14.3181 6.90462 14.3181C6.90462 14.3181 6.90462 14.3181 6.90462 14.3181C6.90462 14.3181 6.90462 14.3181 6.90462 14.3181C6.90462 14.3181 6.90462 14.3181 6.90462 14.3181C6.90462 14.3181 6.90462 14.3181 6.90462 14.3181C6.90462 14.3181 6.90462 14.3181 6.90462 14.3181C6.90462 14.3181 6.90462 14.3181 6.90462 14.3181C6.90462 14.3181 6.90462 14.3181 6.90462 14.3181C6.90462 14.3181 6.90462 14.3181 6.90462 14.3181C6.90462 14.3181 6.90462 14.3181 6.90462 14.3181C6.90462 14.3181 6.90462 14.3181 6.90462 14.3181C6.90462 14.3181 6.90462 14.3181 6.90462 14.3181C6.90462 14.3181 6.90462 14.3181 6.90462 14.3181C6.90462 14.3181 6.90462 14.3181 6.90462 14.3181C6.90462 14.3181 6.90462 14.3181 6.90462 14.3181C6.90462 14.3181 6.90462 14.3181 6.90462 14.3181C6.90462 14.3181 6.90462 14.3181 6.90462 14.3181C6.90462 14.3181 6.90462 14.3181 6.90462 14.3181C6.90462 14.3181 6.90462 14.3181 6.90462 14.3181C6.90462 14.3181 6.90462 14.3181 6.90462 14.3181C6.90462 14.3181 6.90462 14.3181 6.90462 14.3181C6.90462 14.3181 6.90462 14.3181 6.90462 14.3181C6.90462 14.3181 6.90462 14.3181 6.90462 14.3181C6.90462 14.3181 6.90462 14.3181 6.90462 14.3181C6.90462 14.3181 6.90462 14.3181 6.90462 14.3181C6.90462 14.3181 6.90462 14.3181 6.90462 14.3181C6.90462 14.3181 6.90462 14.3181 6.90462 14.3181C6.90462 14.3181 6.90462 14.3181 6.90462 14.3181C6.90462 14.3181 6.90462 14.3181 6.90462 14.3181C6.90462 14.3181 6.90462 14.3181 6.90462 14.3181C6.90462 14.3181 6.90462 14.3181 6.90462 14.3181C6.90462 14.3181 6.90462 14.3181 6.90462 14.3181C6.90462 14.3181 6.90462 14.3181 6.90462 14.3181C6.90462 14.3181 6.90462 14.3181 6.90462 14.3181C6.90462 14.3181 6.90462 14.3181 6.90462 14.3181C6.90462 14.3181 6.90462 14.3181 6.90462 14.3181C6.90462 14.3181 6.90462 14.3181 6.90462 14.3181C6.90462 14.3181 6.90462 14.3181 6.90462 14.3181C6.90462 14.3181 6.90462 14.3181 6.90462 14.3181C6.90462 14.3181 6.90463 14.3181 6.90463 14.3181C6.90463 14.3181 6.90463 14.3181 6.90463 14.3181C6.90463 14.3181 6.90463 14.3181 6.90463 14.3181C6.90463 14.3181 6.90463 14.3181 6.90463 14.3181C6.90463 14.3181 6.90463 14.3181 6.90463 14.3181C6.90463 14.3181 6.90463 14.3181 6.90463 14.3181C6.90463 14.3181 6.90463 14.3181 6.90463 14.3181C6.90463 14.3181 6.90463 14.3181 6.90463 14.3181C6.90463 14.3181 6.90463 14.3181 6.90463 14.3181C6.90463 14.3181 6.90463 14.3181 6.90463 14.3181C6.90463 14.3181 6.90463 14.3181 6.90463 14.3181C6.90463 14.3181 6.90463 14.3181 6.90463 14.3181C6.90463 14.3181 6.90463 14.3181 6.90463 14.3181C6.90463 14.3181 6.90463 14.3181 6.90463 14.3181C6.90463 14.3181 6.90463 14.3181 6.90463 14.3181C6.90463 14.3181 6.90463 14.3181 6.90463 14.3181C6.90463 14.3181 6.90463 14.3181 6.90463 14.3181C6.90463 14.3181 6.90463 14.3181 6.90463 14.3181C6.90463 14.3181 6.90463 14.3181 6.90463 14.3181C6.90463 14.3181 6.90463 14.3181 6.90463 14.3181C6.90463 14.3181 6.90463 14.3181 6.90463 14.3181C6.90463 14.3181 6.90463 14.3181 6.90463 14.3181C6.90463 14.3181 6.90463 14.3181 6.90463 14.3181C6.90463 14.3181 6.90463 14.3181 6.90463 14.3181C6.90463 14.3181 6.90463 14.3181 6.90463 14.3181C6.90463 14.3181 6.90463 14.3181 6.90463 14.3181C6.90463 14.3181 6.90463 14.3181 6.90463 14.3181C6.90463 14.3181 6.90463 14.3181 6.90464 14.3181C6.90464 14.3181 6.90464 14.3181 6.90464 14.3181C6.90464 14.3181 6.90464 14.3181 6.90464 14.3181C6.90464 14.3181 6.90464 14.3181 6.90464 14.3181C6.90464 14.3181 6.90464 14.3181 6.90464 14.3181C6.90464 14.318 6.90464 14.318 6.90464 14.318C6.90464 14.318 6.90464 14.318 6.90464 14.318C6.90464 14.318 6.90464 14.318 6.90464 14.318C6.90464 14.318 6.90464 14.318 6.90464 14.318C6.90464 14.318 6.90464 14.318 6.90464 14.318C6.90464 14.318 6.90464 14.318 6.90464 14.318C6.90464 14.318 6.90464 14.318 6.90464 14.318C6.90464 14.318 6.90464 14.318 6.90464 14.318C6.90464 14.318 6.90464 14.318 6.90464 14.318C6.90464 14.318 6.90464 14.318 6.90464 14.318C6.90464 14.318 6.90464 14.318 6.90464 14.318C6.90464 14.318 6.90464 14.318 6.90464 14.318C6.90464 14.318 6.90464 14.318 6.90464 14.318C6.90464 14.318 6.90464 14.318 6.90464 14.318C6.90464 14.318 6.90464 14.318 6.90464 14.318C6.90464 14.318 6.90464 14.318 6.90464 14.318C6.90464 14.318 6.90464 14.318 6.90464 14.318C6.90464 14.318 6.90464 14.318 6.90464 14.318C6.90465 14.318 6.90465 14.318 6.90465 14.318C6.90465 14.318 6.90465 14.318 6.90465 14.318C6.90465 14.318 6.90465 14.318 6.90465 14.318C6.90465 14.318 6.90465 14.318 6.90465 14.318C6.90465 14.318 6.90465 14.318 6.90465 14.318C6.90465 14.318 6.90465 14.318 6.90465 14.318C6.90465 14.318 6.90465 14.318 6.90465 14.318C6.90465 14.318 6.90465 14.318 6.90465 14.318C6.90465 14.318 6.90465 14.318 6.90465 14.318C6.90465 14.318 6.90465 14.318 6.90465 14.318C6.90465 14.318 6.90465 14.318 6.90465 14.318C6.90465 14.318 6.90465 14.318 6.90465 14.318C6.90465 14.318 6.90465 14.318 6.90465 14.318C6.90465 14.318 6.90465 14.318 6.90465 14.318C6.90465 14.318 6.90465 14.318 6.90465 14.318C6.90465 14.318 6.90465 14.318 6.90465 14.318C6.90465 14.318 6.90465 14.318 6.90465 14.318C6.90465 14.318 6.90465 14.318 6.90465 14.318C6.90465 14.318 6.90465 14.318 6.90465 14.318C6.90465 14.318 6.90465 14.318 6.90465 14.318C6.90466 14.318 6.90466 14.318 6.90466 14.318C6.90466 14.318 6.90466 14.318 6.90466 14.318C6.90466 14.318 6.90466 14.318 6.90466 14.318C6.90466 14.318 6.90466 14.318 6.90466 14.318C6.90466 14.318 6.90466 14.318 6.90466 14.318C6.90466 14.318 6.90466 14.318 6.90466 14.318C6.90466 14.318 6.90466 14.318 6.90466 14.318C6.90466 14.318 6.90466 14.318 6.90466 14.318C6.90466 14.318 6.90466 14.318 6.90466 14.318C6.90466 14.318 6.90466 14.318 6.90466 14.318C6.90466 14.318 6.90466 14.318 6.90466 14.318C6.90466 14.318 6.90466 14.318 6.90466 14.318C6.90466 14.318 6.90466 14.318 6.90466 14.318C6.90466 14.318 6.90466 14.318 6.90466 14.318C6.90466 14.318 6.90466 14.318 6.90466 14.318C6.90466 14.318 6.90466 14.318 6.90466 14.318C6.90466 14.318 6.90466 14.318 6.90466 14.318C6.90466 14.318 6.90466 14.318 6.90466 14.318C6.90466 14.318 6.90466 14.318 6.90466 14.318C6.90467 14.318 6.90467 14.318 6.90467 14.318C6.90467 14.318 6.90467 14.318 6.90467 14.318C6.90467 14.318 6.90467 14.318 6.90467 14.318C6.90467 14.318 6.90467 14.318 6.90467 14.318C6.90467 14.318 6.90467 14.318 6.90467 14.318C6.90467 14.318 6.90467 14.318 6.90467 14.318C6.90467 14.318 6.90467 14.318 6.90467 14.318C6.90467 14.318 6.90467 14.318 6.90467 14.318C6.90467 14.318 6.90467 14.318 6.90467 14.318C6.90467 14.318 6.90467 14.318 6.90467 14.318C6.90467 14.318 6.90467 14.318 6.90467 14.318C6.90467 14.318 6.90467 14.318 6.90467 14.318C6.90467 14.318 6.90467 14.318 6.90467 14.318C6.90467 14.318 6.90467 14.318 6.90467 14.318C6.90467 14.318 6.90467 14.318 6.90467 14.318C6.90467 14.318 6.90467 14.318 6.90467 14.318C6.90467 14.318 6.90467 14.318 6.90467 14.318C6.90467 14.318 6.90467 14.318 6.90467 14.318C6.90467 14.318 6.90467 14.318 6.90468 14.318C6.90468 14.318 6.90468 14.318 6.90468 14.318C6.90468 14.318 6.90468 14.318 6.90468 14.318C6.90468 14.318 6.90468 14.318 6.90468 14.318C6.90468 14.318 6.90468 14.318 6.90468 14.318C6.90468 14.318 6.90468 14.318 6.90468 14.318C6.90468 14.318 6.90468 14.318 6.90468 14.318C6.90468 14.318 6.90468 14.318 6.90468 14.318C6.90468 14.318 6.90468 14.318 6.90468 14.318C6.90468 14.318 6.90468 14.318 6.90468 14.318C6.90468 14.318 6.90468 14.318 6.90468 14.318C6.90468 14.318 6.90468 14.318 6.90468 14.318C6.90468 14.318 6.90468 14.318 6.90468 14.318C6.90468 14.318 6.90468 14.318 6.90468 14.318C6.90468 14.318 6.90468 14.318 6.90468 14.318C6.90468 14.318 6.90468 14.318 6.90468 14.318C6.90468 14.318 6.90468 14.318 6.90468 14.318C6.90468 14.318 6.90468 14.318 6.90468 14.318C6.90468 14.318 6.90468 14.318 6.90468 14.318C6.90468 14.318 6.90468 14.318 6.90469 14.318C6.90469 14.318 6.90469 14.318 6.90469 14.318C6.90469 14.318 6.90469 14.318 6.90469 14.318C6.90469 14.318 6.90469 14.318 6.90469 14.318C6.90469 14.318 6.90469 14.318 6.90469 14.318C6.90469 14.318 6.90469 14.318 6.90469 14.318C6.90469 14.318 6.90469 14.318 6.90469 14.318C6.90469 14.318 6.90469 14.318 6.90469 14.318C6.90469 14.318 6.90469 14.318 6.90469 14.318C6.90469 14.318 6.90469 14.318 6.90469 14.318C6.90469 14.318 6.90469 14.318 6.90469 14.318C6.90469 14.318 6.90469 14.318 6.90469 14.318C6.90469 14.318 6.90469 14.318 6.90469 14.318C6.90469 14.318 6.90469 14.318 6.90469 14.318C6.90469 14.318 6.90469 14.318 6.90469 14.318C6.90469 14.318 6.90469 14.318 6.90469 14.318C6.90469 14.318 6.90469 14.318 6.90469 14.318C6.90469 14.318 6.90469 14.318 6.90469 14.318C6.90469 14.318 6.90469 14.318 6.90469 14.318C6.90469 14.318 6.90469 14.318 6.90469 14.318C6.90469 14.318 6.90469 14.318 6.9047 14.318C6.9047 14.318 6.9047 14.318 6.9047 14.318C6.9047 14.318 6.9047 14.318 6.9047 14.318C6.9047 14.318 6.9047 14.318 6.9047 14.318C6.9047 14.318 6.9047 14.318 6.9047 14.318C6.9047 14.318 6.9047 14.318 6.9047 14.318C6.9047 14.318 6.9047 14.318 6.9047 14.318C6.9047 14.318 6.9047 14.318 6.9047 14.318C6.9047 14.318 6.9047 14.318 6.9047 14.318C6.9047 14.318 6.9047 14.318 6.9047 14.318C6.9047 14.318 6.9047 14.318 6.9047 14.318C6.9047 14.318 6.9047 14.318 6.9047 14.318C6.9047 14.318 6.9047 14.318 6.9047 14.318C6.9047 14.318 6.9047 14.318 6.9047 14.318C6.9047 14.318 6.9047 14.318 6.9047 14.318C6.9047 14.318 6.9047 14.318 6.9047 14.318C6.9047 14.318 6.9047 14.318 6.9047 14.318C6.9047 14.318 6.9047 14.318 6.9047 14.318C6.9047 14.318 6.9047 14.318 6.9047 14.318C6.9047 14.318 6.9047 14.318 6.9047 14.318C6.9047 14.318 6.9047 14.318 6.9047 14.318C6.9047 14.318 6.9047 14.318 6.9047 14.318C6.9047 14.318 6.9047 14.318 6.9047 14.318C6.90471 14.318 6.90471 14.318 6.90471 14.318C6.90471 14.318 6.90471 14.318 6.90471 14.318C6.90471 14.318 6.90471 14.318 6.90471 14.318C6.90471 14.318 6.90471 14.318 6.90471 14.318C6.90471 14.318 6.90471 14.318 6.90471 14.318C6.90471 14.318 6.90471 14.318 6.90471 14.318C6.90471 14.318 6.90471 14.318 6.90471 14.318C6.90471 14.318 6.90471 14.318 6.90471 14.318C6.90471 14.318 6.90471 14.318 6.90471 14.318C6.90471 14.318 6.90471 14.318 6.90471 14.318C6.90471 14.318 6.90471 14.318 6.90471 14.318C6.90471 14.318 6.90471 14.318 6.90471 14.318C6.90471 14.318 6.90471 14.318 6.90471 14.318C6.90471 14.318 6.90471 14.318 6.90471 14.318C6.90471 14.318 6.90471 14.318 6.90471 14.318C6.90471 14.318 6.90471 14.318 6.90471 14.318C6.90471 14.318 6.90471 14.318 6.90471 14.318C6.90471 14.318 6.90471 14.318 6.90471 14.318C6.90471 14.318 6.90471 14.318 6.90471 14.318C6.90471 14.318 6.90471 14.318 6.90471 14.318C6.90471 14.318 6.90471 14.318 6.90471 14.318C6.90471 14.318 6.90471 14.318 6.90471 14.318C6.90471 14.318 6.90471 14.318 6.90471 14.318C6.90471 14.318 6.90471 14.318 6.90471 14.318C6.90471 14.318 6.90471 14.318 6.90471 14.318C6.90471 14.318 6.90471 14.318 6.90471 14.318C6.90471 14.318 6.90471 14.318 6.90471 14.318C6.90471 14.318 6.90471 14.318 6.90471 14.318C6.90472 14.318 6.90472 14.318 6.90472 14.318C6.90472 14.318 6.90472 14.318 6.90472 14.318C6.90472 14.318 6.90472 14.318 6.90472 14.318C6.90472 14.318 6.90472 14.318 6.90472 14.318C6.90472 14.318 6.90472 14.318 6.90472 14.318C6.90472 14.318 6.90472 14.318 6.90472 14.318C6.90472 14.318 6.90472 14.318 6.90472 14.318C6.90472 14.318 6.90472 14.318 6.90472 14.318C6.90472 14.318 6.90472 14.318 6.90472 14.318C6.90472 14.318 6.90472 14.318 6.90472 14.318C6.90472 14.318 6.90472 14.318 6.90472 14.318C6.90472 14.318 6.90472 14.318 6.90472 14.318C6.90472 14.318 6.90472 14.318 6.90472 14.318C6.90472 14.318 6.90472 14.318 6.90472 14.318C6.90472 14.318 6.90472 14.318 6.90472 14.318C6.90472 14.318 6.90472 14.318 6.90472 14.318C6.90472 14.318 6.90472 14.318 6.90472 14.318C6.90472 14.318 6.90472 14.318 6.90472 14.318C6.90472 14.318 6.90472 14.318 6.90472 14.318C6.90472 14.318 6.90472 14.318 6.90472 14.318C6.90472 14.318 6.90472 14.318 6.90472 14.318C6.90472 14.318 6.90472 14.318 6.90472 14.318C6.90472 14.318 6.90472 14.318 6.90472 14.318C6.90472 14.318 6.90472 14.318 6.90472 14.318C6.90472 14.318 6.90472 14.318 6.90472 14.318C6.90472 14.318 6.90472 14.318 6.90472 14.318C6.90472 14.318 6.90472 14.318 6.90472 14.318C6.90472 14.318 6.90472 14.318 6.90472 14.318C6.90472 14.318 6.90472 14.318 6.90472 14.318C6.90472 14.318 6.90472 14.318 6.90472 14.318C6.90472 14.318 6.90472 14.318 6.90472 14.318C6.90472 14.318 6.90472 14.318 6.90472 14.318C6.90472 14.318 6.90472 14.318 6.90472 14.318C6.90472 14.318 6.90472 14.318 6.90472 14.318C6.90472 14.318 6.90472 14.318 6.90472 14.318C6.90472 14.318 6.90472 14.318 6.90472 14.318C6.90472 14.318 6.90472 14.318 6.90472 14.318C6.90472 14.318 6.90472 14.318 6.90472 14.318C6.90472 14.318 6.90472 14.318 6.90472 14.318C6.90472 14.318 6.90472 14.318 6.90472 14.318C6.90472 14.318 6.90472 14.318 6.90472 14.318C6.90472 14.318 6.90472 14.318 6.90472 14.318C6.90472 14.318 6.90472 14.318 6.90472 14.318C6.90472 14.318 6.90472 14.318 6.90472 14.318C6.90472 14.318 6.90472 14.318 6.90472 14.318C6.90472 14.318 6.90472 14.318 6.90472 14.318C6.90472 14.318 6.90472 14.318 6.90472 14.318C6.90472 14.318 6.90472 14.318 6.90472 14.318C6.90472 14.318 5.62435 10.7815 4.34399 11.2451C4.34399 11.2451 4.34399 11.2451 4.34399 11.2451C4.34399 11.2451 4.34399 11.2451 4.34398 11.2451C4.34398 11.2451 4.34398 11.2451 4.34398 11.2451C4.34398 11.2451 4.34398 11.2451 4.34398 11.2451C4.34398 11.2451 4.34398 11.2451 4.34398 11.2451C4.34398 11.2451 4.34398 11.2451 4.34398 11.2451C4.34398 11.2451 4.34398 11.2451 4.34398 11.2451C4.34398 11.2451 4.34398 11.2451 4.34398 11.2451C4.34398 11.2451 4.34398 11.2451 4.34398 11.2451C4.34398 11.2451 4.34398 11.2451 4.34398 11.2451C4.34398 11.2451 4.34398 11.2451 4.34398 11.2451C4.34398 11.2451 4.34398 11.2451 4.34398 11.2451C4.34398 11.2451 4.34398 11.2451 4.34398 11.2451C4.34398 11.2451 4.34398 11.2451 4.34398 11.2451C4.34398 11.2451 4.34398 11.2451 4.34398 11.2451C4.34398 11.2451 4.34398 11.2451 4.34398 11.2451C4.34398 11.2451 4.34398 11.2451 4.34398 11.2451C4.34398 11.2451 4.34398 11.2451 4.34398 11.2451C4.34398 11.2451 4.34398 11.2451 4.34398 11.2451C4.34398 11.2451 4.34398 11.2451 4.34398 11.2451C4.34398 11.2451 4.34398 11.2451 4.34398 11.2451C4.34398 11.2451 4.34398 11.2451 4.34398 11.2451C4.34398 11.2451 4.34398 11.2451 4.34398 11.2451C4.34398 11.2451 4.34398 11.2451 4.34398 11.2451C4.34398 11.2451 4.34398 11.2451 4.34398 11.2451C4.34398 11.2451 4.34398 11.2451 4.34398 11.2451C4.34398 11.2451 4.34398 11.2451 4.34398 11.2451C4.34398 11.2451 4.34398 11.2451 4.34398 11.2451C4.34398 11.2451 4.34398 11.2451 4.34398 11.2451C4.34398 11.2451 4.34398 11.2451 4.34398 11.2451C4.34398 11.2451 4.34398 11.2451 4.34398 11.2451C4.34398 11.2451 4.34398 11.2451 4.34398 11.2451C4.34398 11.2451 4.34398 11.2451 4.34398 11.2451C4.34398 11.2451 4.34398 11.2451 4.34398 11.2451C4.34398 11.2451 4.34398 11.2451 4.34398 11.2451C4.34398 11.2451 4.34398 11.2451 4.34398 11.2451C4.34398 11.2451 4.34398 11.2451 4.34398 11.2451C4.34398 11.2451 4.34398 11.2451 4.34398 11.2451C4.34398 11.2451 4.34398 11.2451 4.34398 11.2451C4.34398 11.2451 4.34398 11.2451 4.34398 11.2451C4.34398 11.2451 4.34398 11.2451 4.34398 11.2451C4.34398 11.2451 4.34398 11.2451 4.34398 11.2451C4.34398 11.2451 4.34398 11.2451 4.34398 11.2451C4.34398 11.2451 4.34398 11.2451 4.34398 11.2451C4.34398 11.2451 4.34398 11.2451 4.34398 11.2451C4.34398 11.2451 4.34398 11.2451 4.34398 11.2451C4.34398 11.2451 4.34398 11.2451 4.34398 11.2451C4.34398 11.2451 4.34398 11.2451 4.34398 11.2451C4.34398 11.2451 4.34398 11.2451 4.34398 11.2451C4.34398 11.2451 4.34397 11.2451 4.34397 11.2451C4.34397 11.2451 4.34397 11.2451 4.34397 11.2451C4.34397 11.2451 4.34397 11.2451 4.34397 11.2451C4.34397 11.2451 4.34397 11.2451 4.34397 11.2451C4.34397 11.2451 4.34397 11.2451 4.34397 11.2451C4.34397 11.2451 4.34397 11.2451 4.34397 11.2451C4.34397 11.2451 4.34397 11.2451 4.34397 11.2451C4.34397 11.2451 4.34397 11.2451 4.34397 11.2451C4.34397 11.2451 4.34397 11.2451 4.34397 11.2451C4.34397 11.2451 4.34397 11.2451 4.34397 11.2451C4.34397 11.2451 4.34397 11.2451 4.34397 11.2451C4.34397 11.2451 4.34397 11.2451 4.34397 11.2451C4.34397 11.2451 4.34397 11.2451 4.34397 11.2451C4.34397 11.2451 4.34397 11.2451 4.34397 11.2451C4.34397 11.2451 4.34397 11.2451 4.34397 11.2451C4.34397 11.2451 4.34397 11.2451 4.34397 11.2451C4.34397 11.2451 4.34397 11.2451 4.34397 11.2451C4.34397 11.2451 4.34397 11.2451 4.34397 11.2451C4.34397 11.2451 4.34397 11.2451 4.34397 11.2451C4.34397 11.2451 4.34397 11.2451 4.34396 11.2451C4.34396 11.2451 4.34396 11.2451 4.34396 11.2451C4.34396 11.2451 4.34396 11.2451 4.34396 11.2451C4.34396 11.2451 4.34396 11.2451 4.34396 11.2451C4.34396 11.2451 4.34396 11.2451 4.34396 11.2451C4.34396 11.2451 4.34396 11.2451 4.34396 11.2451C4.34396 11.2451 4.34396 11.2451 4.34396 11.2451C4.34396 11.2451 4.34396 11.2451 4.34396 11.2451C4.34396 11.2451 4.34396 11.2451 4.34396 11.2451C4.34396 11.2451 4.34396 11.2451 4.34396 11.2451C4.34396 11.2451 4.34396 11.2451 4.34396 11.2451C4.34396 11.2451 4.34396 11.2451 4.34396 11.2451C4.34396 11.2451 4.34396 11.2451 4.34396 11.2451C4.34396 11.2451 4.34396 11.2451 4.34396 11.2451C4.34396 11.2451 4.34396 11.2451 4.34396 11.2451C4.34395 11.2451 4.34395 11.2451 4.34395 11.2451C4.34395 11.2451 4.34395 11.2451 4.34395 11.2451C4.34395 11.2451 4.34395 11.2451 4.34395 11.2451C4.34395 11.2451 4.34395 11.2451 4.34395 11.2451C4.34395 11.2451 4.34395 11.2451 4.34395 11.2451C4.34395 11.2451 4.34395 11.2451 4.34395 11.2451C4.34395 11.2451 4.34395 11.2451 4.34395 11.2451C4.34395 11.2451 4.34395 11.2451 4.34395 11.2451C4.34395 11.2451 4.34395 11.2451 4.34395 11.2451C4.34395 11.2451 4.34395 11.2451 4.34395 11.2451C4.34395 11.2451 4.34395 11.2451 4.34395 11.2451C4.34395 11.2451 4.34395 11.2451 4.34395 11.2451C4.34394 11.2451 4.34394 11.2451 4.34394 11.2451C4.34394 11.2451 4.34394 11.2451 4.34394 11.2451C4.34394 11.2451 4.34394 11.2451 4.34394 11.2451C4.34394 11.2451 4.34394 11.2451 4.34394 11.2451C4.34394 11.2451 4.34394 11.2451 4.34394 11.2451C4.34394 11.2451 4.34394 11.2451 4.34394 11.2451C4.34394 11.2451 4.34394 11.2451 4.34394 11.2451C4.34394 11.2451 4.34394 11.2451 4.34394 11.2451C4.34394 11.2451 4.34394 11.2451 4.34394 11.2451C4.34394 11.2451 4.34394 11.2451 4.34394 11.2451C4.34393 11.2451 4.34393 11.2451 4.34393 11.2451C4.34393 11.2451 4.34393 11.2451 4.34393 11.2451C4.34393 11.2451 4.34393 11.2451 4.34393 11.2451L6.90467 14.318C6.90467 14.318 6.90467 14.318 6.90467 14.318C6.90467 14.318 6.90467 14.318 6.90467 14.318C6.90467 14.318 6.90467 14.318 6.90467 14.318C6.90467 14.318 6.90467 14.318 6.90467 14.318C6.90467 14.318 6.90467 14.318 6.90467 14.318C6.90468 14.318 6.90468 14.318 6.90468 14.318C6.90468 14.318 6.90468 14.318 6.90468 14.318C6.90468 14.318 6.90468 14.318 6.90468 14.318C6.90468 14.318 6.90468 14.318 6.90468 14.318C6.90468 14.318 6.90468 14.318 6.90468 14.318C6.90468 14.318 6.90468 14.318 6.90468 14.318C6.90468 14.318 6.90468 14.318 6.90468 14.318C6.90468 14.318 6.90468 14.318 6.90468 14.318C6.90468 14.318 6.90468 14.318 6.90468 14.318C6.90468 14.318 6.90468 14.318 6.90468 14.318C6.90468 14.318 6.90469 14.318 6.90469 14.318C6.90469 14.318 6.90469 14.318 6.90469 14.318C6.90469 14.318 6.90469 14.318 6.90469 14.318C6.90469 14.318 6.90469 14.318 6.90469 14.318C6.90469 14.318 6.90469 14.318 6.90469 14.318C6.90469 14.318 6.90469 14.318 6.90469 14.318C6.90469 14.318 6.90469 14.318 6.90469 14.318C6.90469 14.318 6.90469 14.318 6.90469 14.318C6.90469 14.318 6.90469 14.318 6.90469 14.318C6.90469 14.318 6.90469 14.318 6.90469 14.318C6.90469 14.318 6.90469 14.318 6.90469 14.318C6.90469 14.318 6.90469 14.318 6.90469 14.318C6.90469 14.318 6.90469 14.318 6.9047 14.318C6.9047 14.318 6.9047 14.318 6.9047 14.318C6.9047 14.318 6.9047 14.318 6.9047 14.318C6.9047 14.318 6.9047 14.318 6.9047 14.318C6.9047 14.318 6.9047 14.318 6.9047 14.318C6.9047 14.318 6.9047 14.318 6.9047 14.318C6.9047 14.318 6.9047 14.318 6.9047 14.318C6.9047 14.318 6.9047 14.318 6.9047 14.318C6.9047 14.318 6.9047 14.318 6.9047 14.318C6.9047 14.318 6.9047 14.318 6.9047 14.318C6.9047 14.318 6.9047 14.318 6.9047 14.318C6.9047 14.318 6.9047 14.318 6.9047 14.318C6.9047 14.318 6.9047 14.318 6.9047 14.318C6.9047 14.318 6.9047 14.318 6.9047 14.318C6.9047 14.318 6.9047 14.318 6.9047 14.318C6.9047 14.318 6.9047 14.318 6.9047 14.318C6.90471 14.318 6.90471 14.318 6.90471 14.318C6.90471 14.318 6.90471 14.318 6.90471 14.318C6.90471 14.318 6.90471 14.318 6.90471 14.318C6.90471 14.318 6.90471 14.318 6.90471 14.318C6.90471 14.318 6.90471 14.318 6.90471 14.318C6.90471 14.318 6.90471 14.318 6.90471 14.318C6.90471 14.318 6.90471 14.318 6.90471 14.318C6.90471 14.318 6.90471 14.318 6.90471 14.318C6.90471 14.318 6.90471 14.318 6.90471 14.318C6.90471 14.318 6.90471 14.318 6.90471 14.318C6.90471 14.318 6.90471 14.318 6.90471 14.318C6.90471 14.318 6.90471 14.318 6.90471 14.318C6.90471 14.318 6.90471 14.318 6.90471 14.318C6.90471 14.318 6.90471 14.318 6.90471 14.318C6.90471 14.318 6.90471 14.318 6.90471 14.318C6.90471 14.318 6.90471 14.318 6.90471 14.318C6.90471 14.318 6.90471 14.318 6.90471 14.318C6.90471 14.318 6.90471 14.318 6.90471 14.318C6.90471 14.318 6.90471 14.318 6.90471 14.318C6.90471 14.318 6.90471 14.318 6.90471 14.318C6.90471 14.318 6.90471 14.318 6.90471 14.318C6.90471 14.318 6.90472 14.318 6.90472 14.318C6.90472 14.318 6.90472 14.318 6.90472 14.318C6.90472 14.318 6.90472 14.318 6.90472 14.318C6.90472 14.318 6.90472 14.318 6.90472 14.318C6.90472 14.318 6.90472 14.318 6.90472 14.318C6.90472 14.318 6.90472 14.318 6.90472 14.318C6.90472 14.318 6.90472 14.318 6.90472 14.318C6.90472 14.318 6.90472 14.318 6.90472 14.318C6.90472 14.318 6.90472 14.318 6.90472 14.318C6.90472 14.318 6.90472 14.318 6.90472 14.318C6.90472 14.318 6.90472 14.318 6.90472 14.318C6.90472 14.318 6.90472 14.318 6.90472 14.318C6.90472 14.318 6.90472 14.318 6.90472 14.318C6.90472 14.318 6.90472 14.318 6.90472 14.318C6.90472 14.318 6.90472 14.318 6.90472 14.318C6.90472 14.318 6.90472 14.318 6.90472 14.318C6.90472 14.318 6.90472 14.318 6.90472 14.318C6.90472 14.318 6.90472 14.318 6.90472 14.318C6.90472 14.318 6.90472 14.318 6.90472 14.318C6.90472 14.318 6.90472 14.318 6.90472 14.318C6.90472 14.318 6.90472 14.318 6.90472 14.318C6.90472 14.318 6.90472 14.318 6.90472 14.318C6.90472 14.318 6.90472 14.318 6.90472 14.318C6.90472 14.318 6.90472 14.318 6.90472 14.318C6.90472 14.318 6.90472 14.318 6.90472 14.318C6.90472 14.318 6.90472 14.318 6.90472 14.318C6.90472 14.318 6.90472 14.318 6.90472 14.318C6.90472 14.318 6.90472 14.318 6.90472 14.318C6.90472 14.318 6.90472 14.318 6.90472 14.318C6.90472 14.318 6.90472 14.318 6.90472 14.318C6.90472 14.318 6.90472 14.318 6.90472 14.318C6.90472 14.318 6.90472 14.318 6.90472 14.318C6.90472 14.318 6.90472 14.318 6.90472 14.318C6.90472 14.318 6.90472 14.318 6.90472 14.318C6.90472 14.318 6.90472 14.318 6.90472 14.318C6.90472 14.318 6.90472 14.318 6.90472 14.318C6.90472 14.318 6.90472 14.318 6.90472 14.318C6.90472 14.318 6.90472 14.318 6.90472 14.318C6.90472 14.318 6.90472 14.318 6.90472 14.318C6.90472 14.318 6.90472 14.318 6.90472 14.318C6.90472 14.318 6.90472 14.318 6.90472 14.318C6.90472 14.318 6.90472 14.318 6.90472 14.318C6.90472 14.318 6.90472 14.318 6.90472 14.318C6.90472 14.318 6.90472 14.318 6.90472 14.318C5.62435 14.7815 4.34399 11.2451 4.34399 11.2451C4.34399 11.2451 4.34399 11.2451 4.34399 11.2451C4.34398 11.2451 4.34398 11.2451 4.34398 11.2451C4.34398 11.2451 4.34398 11.2451 4.34398 11.2451C4.34398 11.2451 4.34398 11.2451 4.34398 11.2451C4.34398 11.2451 4.34398 11.2451 4.34398 11.2451C4.34398 11.2451 4.34398 11.2451 4.34398 11.2451C4.34398 11.2451 4.34398 11.2451 4.34398 11.2451C4.34398 11.2451 4.34398 11.2451 4.34398 11.2451C4.34398 11.2451 4.34398 11.2451 4.34398 11.2451C4.34398 11.2451 4.34398 11.2451 4.34398 11.2451C4.34398 11.2451 4.34398 11.2451 4.34398 11.2451C4.34398 11.2451 4.34398 11.2451 4.34398 11.2451C4.34398 11.2451 4.34398 11.2451 4.34398 11.2451C4.34398 11.2451 4.34398 11.2451 4.34398 11.2451C4.34398 11.2451 4.34398 11.2451 4.34398 11.2451C4.34398 11.2451 4.34398 11.2451 4.34398 11.2451C4.34398 11.2451 4.34398 11.2451 4.34398 11.2451C4.34398 11.2451 4.34398 11.2451 4.34398 11.2451C4.34398 11.2451 4.34398 11.2451 4.34398 11.2451C4.34398 11.2451 4.34398 11.2451 4.34398 11.2451C4.34398 11.2451 4.34398 11.2451 4.34398 11.2451C4.34398 11.2451 4.34398 11.2451 4.34398 11.2451C4.34398 11.2451 4.34398 11.2451 4.34398 11.2451C4.34398 11.2451 4.34398 11.2451 4.34398 11.2451C4.34398 11.2451 4.34398 11.2451 4.34398 11.2451C4.34398 11.2451 4.34398 11.2451 4.34398 11.2451C4.34398 11.2451 4.34398 11.2451 4.34398 11.2451C4.34398 11.2451 4.34398 11.2451 4.34398 11.2451C4.34398 11.2451 4.34398 11.2451 4.34398 11.2451C4.34398 11.2451 4.34398 11.2451 4.34398 11.2451C4.34398 11.2451 4.34398 11.2451 4.34398 11.2451C4.34398 11.2451 4.34398 11.2451 4.34398 11.2451C4.34398 11.2451 4.34398 11.2451 4.34398 11.2451C4.34398 11.2451 4.34398 11.2451 4.34398 11.2451C4.34398 11.2451 4.34398 11.2451 4.34398 11.2451C4.34398 11.2451 4.34398 11.2451 4.34398 11.2451C4.34398 11.2451 4.34398 11.2451 4.34398 11.2451C4.34398 11.2451 4.34398 11.2451 4.34398 11.2451C4.34398 11.2451 4.34398 11.2451 4.34398 11.2451C4.34398 11.2451 4.34398 11.2451 4.34398 11.2451C4.34398 11.2451 4.34398 11.2451 4.34398 11.2451C4.34398 11.2451 4.34398 11.2451 4.34398 11.2451C4.34398 11.2451 4.34398 11.2451 4.34398 11.2451C4.34398 11.2451 4.34398 11.2451 4.34398 11.2451C4.34398 11.2451 4.34398 11.2451 4.34398 11.2451C4.34398 11.2451 4.34398 11.2451 4.34398 11.2451C4.34398 11.2451 4.34398 11.2451 4.34398 11.2451C4.34398 11.2451 4.34398 11.2451 4.34398 11.2451C4.34398 11.2451 4.34398 11.2451 4.34398 11.2451C4.34398 11.2451 4.34398 11.2451 4.34398 11.2451C4.34398 11.2451 4.34398 11.2451 4.34398 11.2451C4.34398 11.2451 4.34398 11.2451 4.34398 11.2451C4.34398 11.2451 4.34398 11.2451 4.34398 11.2451C4.34398 11.2451 4.34398 11.2451 4.34398 11.2451C4.34398 11.2451 4.34398 11.2451 4.34398 11.2451C4.34398 11.2451 4.34397 11.2451 4.34397 11.2451C4.34397 11.2451 4.34397 11.2451 4.34397 11.2451C4.34397 11.2451 4.34397 11.2451 4.34397 11.2451C4.34397 11.2451 4.34397 11.2451 4.34397 11.2451C4.34397 11.2451 4.34397 11.2451 4.34397 11.2451C4.34397 11.2451 4.34397 11.2451 4.34397 11.2451C4.34397 11.2451 4.34397 11.2451 4.34397 11.2451C4.34397 11.2451 4.34397 11.2451 4.34397 11.2451C4.34397 11.2451 4.34397 11.2451 4.34397 11.2451C4.34397 11.2451 4.34397 11.2451 4.34397 11.2451C4.34397 11.2451 4.34397 11.2451 4.34397 11.2451C4.34397 11.2451 4.34397 11.2451 4.34397 11.2451C4.34397 11.2451 4.34397 11.2451 4.34397 11.2451C4.34397 11.2451 4.34397 11.2451 4.34397 11.2451C4.34397 11.2451 4.34397 11.2451 4.34397 11.2451C4.34397 11.2451 4.34397 11.2451 4.34397 11.2451C4.34397 11.2451 4.34397 11.2451 4.34397 11.2451C4.34397 11.2451 4.34397 11.2451 4.34397 11.2451C4.34397 11.2451 4.34397 11.2451 4.34397 11.2451C4.34397 11.2451 4.34397 11.2451 4.34397 11.2451C4.34397 11.2451 4.34397 11.2451 4.34397 11.2451C4.34397 11.2451 4.34397 11.2451 4.34397 11.2451C4.34397 11.2451 4.34397 11.2451 4.34397 11.2451C4.34397 11.2451 4.34397 11.2451 4.34397 11.2451C4.34397 11.2451 4.34397 11.2451 4.34397 11.2451C4.34397 11.2451 4.34397 11.2451 4.34397 11.2451C4.34397 11.2451 4.34396 11.2451 4.34396 11.2451C4.34396 11.2451 4.34396 11.2451 4.34396 11.2451C4.34396 11.2451 4.34396 11.2451 4.34396 11.2451C4.34396 11.2451 4.34396 11.2451 4.34396 11.2451C4.34396 11.2451 4.34396 11.2451 4.34396 11.2451C4.34396 11.2451 4.34396 11.2451 4.34396 11.2451C4.34396 11.2451 4.34396 11.2451 4.34396 11.2451C4.34396 11.2451 4.34396 11.2451 4.34396 11.2451C4.34396 11.2451 4.34396 11.2451 4.34396 11.2451C4.34396 11.2451 4.34396 11.2451 4.34396 11.2451C4.34396 11.2451 4.34396 11.2451 4.34396 11.2451C4.34396 11.2451 4.34396 11.2451 4.34396 11.2451C4.34396 11.2451 4.34396 11.2451 4.34396 11.2451C4.34396 11.2451 4.34396 11.2451 4.34396 11.2451C4.34396 11.2451 4.34396 11.2451 4.34396 11.2451C4.34396 11.2451 4.34396 11.2451 4.34396 11.2451C4.34396 11.2451 4.34396 11.2451 4.34396 11.2451C4.34396 11.2451 4.34396 11.2451 4.34396 11.2451C4.34396 11.2451 4.34396 11.2451 4.34396 11.2451C4.34396 11.2451 4.34396 11.2451 4.34396 11.2451C4.34396 11.2451 4.34396 11.2451 4.34396 11.2451C4.34396 11.2451 4.34396 11.2451 4.34396 11.2451C4.34395 11.2451 4.34395 11.2451 4.34395 11.2451C4.34395 11.2451 4.34395 11.2451 4.34395 11.2451C4.34395 11.2451 4.34395 11.2451 4.34395 11.2451C4.34395 11.2451 4.34395 11.2451 4.34395 11.2451C4.34395 11.2451 4.34395 11.2451 4.34395 11.2451C4.34395 11.2451 4.34395 11.2451 4.34395 11.2451C4.34395 11.2451 4.34395 11.2451 4.34395 11.2451C4.34395 11.2451 4.34395 11.2451 4.34395 11.2451C4.34395 11.2451 4.34395 11.2451 4.34395 11.2451C4.34395 11.2451 4.34395 11.2451 4.34395 11.2451C4.34395 11.2451 4.34395 11.2451 4.34395 11.2451C4.34395 11.2451 4.34395 11.2451 4.34395 11.2451C4.34395 11.2451 4.34395 11.2451 4.34395 11.2451C4.34395 11.2451 4.34395 11.2451 4.34395 11.2451C4.34395 11.2451 4.34395 11.2451 4.34395 11.2451C4.34395 11.2451 4.34395 11.2451 4.34395 11.2451C4.34395 11.2451 4.34395 11.2451 4.34395 11.2451C4.34395 11.2451 4.34395 11.2451 4.34395 11.2451C4.34395 11.2451 4.34395 11.2451 4.34395 11.2451C4.34395 11.2451 4.34395 11.2451 4.34394 11.2451C4.34394 11.2451 4.34394 11.2451 4.34394 11.2451C4.34394 11.2451 4.34394 11.2451 4.34394 11.2451C4.34394 11.2451 4.34394 11.2451 4.34394 11.2451C4.34394 11.2451 4.34394 11.2451 4.34394 11.2451C4.34394 11.2451 4.34394 11.2451 4.34394 11.2451C4.34394 11.2451 4.34394 11.2451 4.34394 11.2451C4.34394 11.2451 4.34394 11.2451 4.34394 11.2451C4.34394 11.2451 4.34394 11.2451 4.34394 11.2451C4.34394 11.2451 4.34394 11.2451 4.34394 11.2451C4.34394 11.2451 4.34394 11.2451 4.34394 11.2451C4.34394 11.2451 4.34394 11.2451 4.34394 11.2451C4.34394 11.2451 4.34394 11.2451 4.34394 11.2451C4.34394 11.2451 4.34394 11.2451 4.34394 11.2451C4.34394 11.2451 4.34394 11.2451 4.34394 11.2451C4.34394 11.2451 4.34394 11.2451 4.34394 11.2451C4.34394 11.2451 4.34394 11.2451 4.34394 11.2451C4.34394 11.2451 4.34394 11.2451 4.34394 11.2451C4.34394 11.2451 4.34394 11.2451 4.34394 11.2451C4.34394 11.2451 4.34394 11.2451 4.34393 11.2451C4.34393 11.2451 4.34393 11.2451 4.34393 11.2451C4.34393 11.2451 4.34393 11.2451 4.34393 11.2451C4.34393 11.2451 4.34393 11.2451 4.34393 11.2451C4.34393 11.2451 4.34393 11.2451 4.34393 11.2451C4.34393 11.2451 4.34393 11.2451 4.34393 11.2451C4.34393 11.2451 4.34393 11.2451 4.34393 11.2451C4.34393 11.2451 4.34393 11.2451 4.34393 11.2451C4.34393 11.2451 4.34393 11.2451 4.34393 11.2451C4.34393 11.2451 4.34393 11.2451 4.34393 11.2451C4.34393 11.2451 4.34393 11.2451 4.34393 11.2451C4.34393 11.2451 4.34393 11.2451 4.34393 11.2451C4.34393 11.2451 4.34393 11.2451 4.34393 11.2451C4.34393 11.2451 4.34393 11.2451 4.34393 11.2451C4.34393 11.2451 4.34393 11.2451 4.34393 11.2451C4.34393 11.2451 4.34393 11.2451 4.34393 11.2451C4.34393 11.2451 4.34393 11.2451 4.34393 11.2451C4.34393 11.2451 4.34393 11.2451 4.34393 11.2451C4.34393 11.2451 4.34393 11.2451 4.34393 11.2451C4.34393 11.2451 4.34392 11.2451 4.34392 11.2451C4.34392 11.2451 4.34392 11.2451 4.34392 11.2451C4.34392 11.2451 4.34392 11.2451 4.34392 11.2451C4.34392 11.2451 4.34392 11.2451 4.34392 11.2451C4.34392 11.2451 4.34392 11.2451 4.34392 11.2451C4.34392 11.2451 4.34392 11.2451 4.34392 11.2451C4.34392 11.2451 4.34392 11.2451 4.34392 11.2451C4.34392 11.2451 4.34392 11.2451 4.34392 11.2451C4.34392 11.2451 4.34392 11.2451 4.34392 11.2451C4.34392 11.2451 4.34392 11.2451 4.34392 11.2451C4.34392 11.2451 4.34392 11.2451 4.34392 11.2451C4.34392 11.2451 4.34392 11.2451 4.34392 11.2451C4.34392 11.2451 4.34392 11.2451 4.34392 11.2451C4.34392 11.2451 4.34392 11.2451 4.34392 11.2451C4.34392 11.2451 4.34392 11.2451 4.34392 11.2451C4.34392 11.2451 4.34392 11.2452 4.34392 11.2452C4.34392 11.2452 4.34392 11.2452 4.34392 11.2452C4.34392 11.2452 4.34392 11.2452 4.34392 11.2452C4.34392 11.2452 4.34392 11.2452 4.34392 11.2452C4.34392 11.2452 4.34391 11.2452 4.34391 11.2452C4.34391 11.2452 4.34391 11.2452 4.34391 11.2452C4.34391 11.2452 4.34391 11.2452 4.34391 11.2452C4.34391 11.2452 4.34391 11.2452 4.34391 11.2452C4.34391 11.2452 4.34391 11.2452 4.34391 11.2452C4.34391 11.2452 4.34391 11.2452 4.34391 11.2452C4.34391 11.2452 4.34391 11.2452 4.34391 11.2452C4.34391 11.2452 4.34391 11.2452 4.34391 11.2452C4.34391 11.2452 4.34391 11.2452 4.34391 11.2452C4.34391 11.2452 4.34391 11.2452 4.34391 11.2452C4.34391 11.2452 4.34391 11.2452 4.34391 11.2452C4.34391 11.2452 4.34391 11.2452 4.34391 11.2452C4.34391 11.2452 4.34391 11.2452 4.34391 11.2452C4.34391 11.2452 4.34391 11.2452 4.34391 11.2452C4.34391 11.2452 4.34391 11.2452 4.34391 11.2452C4.34391 11.2452 4.34391 11.2452 4.34391 11.2452C4.34391 11.2452 4.34391 11.2452 4.34391 11.2452C4.34391 11.2452 4.34391 11.2452 4.34391 11.2452C4.34391 11.2452 4.34391 11.2452 4.34391 11.2452C4.34391 11.2452 4.34391 11.2452 4.34391 11.2452C4.34391 11.2452 4.34391 11.2452 4.3439 11.2452C4.3439 11.2452 4.3439 11.2452 4.3439 11.2452C4.3439 11.2452 4.3439 11.2452 4.3439 11.2452C4.3439 11.2452 4.3439 11.2452 4.3439 11.2452C4.3439 11.2452 4.3439 11.2452 4.3439 11.2452C4.3439 11.2452 4.3439 11.2452 4.3439 11.2452C4.3439 11.2452 4.3439 11.2452 4.3439 11.2452C4.3439 11.2452 4.3439 11.2452 4.3439 11.2452C4.3439 11.2452 4.3439 11.2452 4.3439 11.2452C4.3439 11.2452 4.3439 11.2452 4.3439 11.2452C4.3439 11.2452 4.3439 11.2452 4.3439 11.2452C4.3439 11.2452 4.3439 11.2452 4.3439 11.2452C4.3439 11.2452 4.3439 11.2452 4.3439 11.2452C4.3439 11.2452 4.3439 11.2452 4.3439 11.2452C4.3439 11.2452 4.3439 11.2452 4.3439 11.2452C4.3439 11.2452 4.3439 11.2452 4.3439 11.2452C4.3439 11.2452 4.3439 11.2452 4.3439 11.2452C4.3439 11.2452 4.3439 11.2452 4.3439 11.2452C4.3439 11.2452 4.3439 11.2452 4.3439 11.2452C4.3439 11.2452 4.3439 11.2452 4.3439 11.2452C4.3439 11.2452 4.3439 11.2452 4.3439 11.2452C4.3439 11.2452 4.3439 11.2452 4.3439 11.2452C4.3439 11.2452 4.3439 11.2452 4.3439 11.2452C4.3439 11.2452 4.3439 11.2452 4.34389 11.2452C4.34389 11.2452 4.34389 11.2452 4.34389 11.2452C4.34389 11.2452 4.34389 11.2452 4.34389 11.2452C4.34389 11.2452 4.34389 11.2452 4.34389 11.2452C4.34389 11.2452 4.34389 11.2452 4.34389 11.2452C4.34389 11.2452 4.34389 11.2452 4.34389 11.2452C4.34389 11.2452 4.34389 11.2452 4.34389 11.2452C4.34389 11.2452 4.34389 11.2452 4.34389 11.2452C4.34389 11.2452 4.34389 11.2452 4.34389 11.2452C4.34389 11.2452 4.34389 11.2452 4.34389 11.2452C4.34389 11.2452 4.34389 11.2452 4.34389 11.2452C4.34389 11.2452 4.34389 11.2452 4.34389 11.2452C4.34389 11.2452 4.34389 11.2452 4.34389 11.2452C4.34389 11.2452 4.34389 11.2452 4.34389 11.2452C4.34389 11.2452 4.34389 11.2452 4.34389 11.2452C4.34389 11.2452 4.34389 11.2452 4.34389 11.2452C4.34389 11.2452 4.34389 11.2452 4.34389 11.2452C4.34389 11.2452 4.34389 11.2452 4.34389 11.2452C4.34389 11.2452 4.34389 11.2452 4.34389 11.2452C4.34389 11.2452 4.34389 11.2452 4.34389 11.2452C4.34389 11.2452 4.34389 11.2452 4.34389 11.2452C4.34389 11.2452 4.34389 11.2452 4.34389 11.2452C4.34389 11.2452 4.34389 11.2452 4.34389 11.2452C4.34389 11.2452 4.34389 11.2452 4.34389 11.2452C4.34389 11.2452 4.34389 11.2452 4.34389 11.2452C4.34389 11.2452 4.34389 11.2452 4.34389 11.2452C4.34389 11.2452 4.34389 11.2452 4.34389 11.2452C4.34389 11.2452 4.34389 11.2452 4.34389 11.2452C4.34389 11.2452 4.34389 11.2452 4.34389 11.2452C4.34389 11.2452 4.34389 11.2452 4.34389 11.2452C4.34389 11.2452 4.34389 11.2452 4.34389 11.2452C4.34388 11.2452 4.34388 11.2452 4.34388 11.2452C4.34388 11.2452 4.34388 11.2452 4.34388 11.2452C4.34388 11.2452 4.34388 11.2452 4.34388 11.2452C4.34388 11.2452 4.34388 11.2452 4.34388 11.2452C4.34388 11.2452 4.34388 11.2452 4.34388 11.2452C4.34388 11.2452 4.34388 11.2452 4.34388 11.2452C4.34388 11.2452 4.34388 11.2452 4.34388 11.2452C4.34388 11.2452 4.34388 11.2452 4.34388 11.2452C4.34388 11.2452 4.34388 11.2452 4.34388 11.2452C4.34388 11.2452 4.34388 11.2452 4.34388 11.2452C4.34388 11.2452 4.34388 11.2452 4.34388 11.2452C4.34388 11.2452 4.34388 11.2452 4.34388 11.2452C4.34388 11.2452 4.34388 11.2452 4.34388 11.2452C4.34388 11.2452 4.34388 11.2452 4.34388 11.2452C4.34388 11.2452 4.34388 11.2452 4.34388 11.2452C4.34388 11.2452 4.34388 11.2452 4.34388 11.2452C4.34388 11.2452 4.34388 11.2452 4.34388 11.2452C4.34388 11.2452 4.34388 11.2452 4.34388 11.2452C4.34388 11.2452 4.34388 11.2452 4.34388 11.2452C4.34388 11.2452 4.34388 11.2452 4.34388 11.2452C4.34388 11.2452 4.34388 11.2452 4.34388 11.2452C4.34388 11.2452 4.34388 11.2452 4.34388 11.2452C4.34388 11.2452 4.34388 11.2452 4.34388 11.2452C4.34388 11.2452 4.34388 11.2452 4.34388 11.2452C4.34388 11.2452 4.34388 11.2452 4.34388 11.2452C4.34388 11.2452 4.34388 11.2452 4.34388 11.2452C4.34388 11.2452 4.34388 11.2452 4.34388 11.2452C4.34388 11.2452 4.34388 11.2452 4.34388 11.2452C4.34388 11.2452 4.34388 11.2452 4.34388 11.2452C4.34388 11.2452 4.34388 11.2452 4.34388 11.2452C4.34388 11.2452 4.34388 11.2452 4.34388 11.2452C4.34388 11.2452 4.34388 11.2452 4.34388 11.2452C4.34388 11.2452 4.34388 11.2452 4.34388 11.2452C4.34388 11.2452 4.34388 11.2452 4.34388 11.2452C4.34388 11.2452 4.34388 11.2452 4.34388 11.2452C4.34388 11.2452 4.34388 11.2452 4.34388 11.2452C4.34388 11.2452 4.34388 11.2452 4.34388 11.2452C4.34388 11.2452 4.34388 11.2452 4.34388 11.2452C4.34388 11.2452 4.34388 11.2452 4.34388 11.2452C4.34388 11.2452 4.34388 11.2452 4.34388 11.2452C4.34388 11.2452 4.34388 11.2452 4.34388 11.2452C4.34388 11.2452 5.62425 14.7816 6.90462 14.3181C6.90462 14.3181 6.90462 14.3181 6.90462 14.3181C6.90462 14.3181 6.90462 14.3181 6.90462 14.3181C6.90462 14.3181 6.90462 14.3181 6.90462 14.3181C6.90462 14.3181 6.90462 14.3181 6.90462 14.3181C6.90462 14.3181 6.90462 14.3181 6.90462 14.3181C6.90462 14.3181 6.90462 14.3181 6.90462 14.3181C6.90462 14.3181 6.90462 14.3181 6.90462 14.3181C6.90462 14.3181 6.90462 14.3181 6.90462 14.3181C6.90462 14.3181 6.90462 14.3181 6.90462 14.3181C6.90462 14.3181 6.90462 14.3181 6.90462 14.3181C6.90462 14.3181 6.90462 14.3181 6.90462 14.3181C6.90462 14.3181 6.90462 14.3181 6.90462 14.3181C6.90462 14.3181 6.90462 14.3181 6.90462 14.3181C6.90462 14.3181 6.90462 14.3181 6.90462 14.3181C6.90462 14.3181 6.90462 14.3181 6.90462 14.3181C6.90462 14.3181 6.90462 14.3181 6.90462 14.3181C6.90462 14.3181 6.90462 14.3181 6.90462 14.3181C6.90462 14.3181 6.90462 14.3181 6.90462 14.3181C6.90462 14.3181 6.90462 14.3181 6.90462 14.3181C6.90462 14.3181 6.90462 14.3181 6.90462 14.3181C6.90462 14.3181 6.90462 14.3181 6.90462 14.3181C6.90462 14.3181 6.90462 14.3181 6.90462 14.3181C6.90462 14.3181 6.90462 14.3181 6.90462 14.3181C6.90462 14.3181 6.90462 14.3181 6.90462 14.3181C6.90462 14.3181 6.90462 14.3181 6.90462 14.3181C6.90462 14.3181 6.90462 14.3181 6.90462 14.3181C6.90462 14.3181 6.90462 14.3181 6.90462 14.3181C6.90462 14.3181 6.90462 14.3181 6.90462 14.3181C6.90462 14.3181 6.90462 14.3181 6.90462 14.3181C6.90462 14.3181 6.90462 14.3181 6.90462 14.3181C6.90462 14.3181 6.90462 14.3181 6.90462 14.3181C6.90462 14.3181 6.90462 14.3181 6.90462 14.3181C6.90462 14.3181 6.90462 14.3181 6.90462 14.3181C6.90462 14.3181 6.90462 14.3181 6.90462 14.3181C6.90462 14.3181 6.90462 14.3181 6.90462 14.3181C6.90462 14.3181 6.90462 14.3181 6.90462 14.3181C6.90462 14.3181 6.90462 14.3181 6.90462 14.3181C6.90462 14.3181 6.90462 14.3181 6.90462 14.3181C6.90462 14.3181 6.90462 14.3181 6.90462 14.3181C6.90462 14.3181 6.90462 14.3181 6.90462 14.3181C6.90462 14.3181 6.90462 14.3181 6.90462 14.3181C6.90462 14.3181 6.90462 14.3181 6.90462 14.3181C6.90462 14.3181 6.90462 14.3181 6.90462 14.3181C6.90462 14.3181 6.90462 14.3181 6.90462 14.3181C6.90462 14.3181 6.90462 14.3181 6.90463 14.3181C6.90463 14.3181 6.90463 14.3181 6.90463 14.3181C6.90463 14.3181 6.90463 14.3181 6.90463 14.3181C6.90463 14.3181 6.90463 14.3181 6.90463 14.3181C6.90463 14.3181 6.90463 14.3181 6.90463 14.3181C6.90463 14.3181 6.90463 14.3181 6.90463 14.3181C6.90463 14.3181 6.90463 14.3181 6.90463 14.3181C6.90463 14.3181 6.90463 14.3181 6.90463 14.3181C6.90463 14.3181 6.90463 14.3181 6.90463 14.3181C6.90463 14.3181 6.90463 14.3181 6.90463 14.3181C6.90463 14.3181 6.90463 14.3181 6.90463 14.3181C6.90463 14.3181 6.90463 14.3181 6.90463 14.3181C6.90463 14.3181 6.90463 14.3181 6.90463 14.3181C6.90463 14.3181 6.90463 14.3181 6.90463 14.3181C6.90463 14.3181 6.90463 14.3181 6.90463 14.3181C6.90463 14.3181 6.90463 14.3181 6.90463 14.3181C6.90463 14.3181 6.90463 14.3181 6.90463 14.3181C6.90463 14.3181 6.90463 14.3181 6.90463 14.3181C6.90463 14.3181 6.90463 14.3181 6.90463 14.3181C6.90463 14.3181 6.90463 14.3181 6.90463 14.3181C6.90463 14.3181 6.90463 14.3181 6.90463 14.3181C6.90463 14.3181 6.90463 14.3181 6.90464 14.3181C6.90464 14.3181 6.90464 14.3181 6.90464 14.3181C6.90464 14.3181 6.90464 14.3181 6.90464 14.3181C6.90464 14.3181 6.90464 14.3181 6.90464 14.318C6.90464 14.318 6.90464 14.318 6.90464 14.318C6.90464 14.318 6.90464 14.318 6.90464 14.318C6.90464 14.318 6.90464 14.318 6.90464 14.318C6.90464 14.318 6.90464 14.318 6.90464 14.318C6.90464 14.318 6.90464 14.318 6.90464 14.318C6.90464 14.318 6.90464 14.318 6.90464 14.318C6.90464 14.318 6.90464 14.318 6.90464 14.318C6.90464 14.318 6.90464 14.318 6.90464 14.318C6.90464 14.318 6.90464 14.318 6.90464 14.318C6.90464 14.318 6.90464 14.318 6.90464 14.318C6.90464 14.318 6.90464 14.318 6.90464 14.318C6.90464 14.318 6.90464 14.318 6.90465 14.318C6.90465 14.318 6.90465 14.318 6.90465 14.318C6.90465 14.318 6.90465 14.318 6.90465 14.318C6.90465 14.318 6.90465 14.318 6.90465 14.318C6.90465 14.318 6.90465 14.318 6.90465 14.318C6.90465 14.318 6.90465 14.318 6.90465 14.318C6.90465 14.318 6.90465 14.318 6.90465 14.318C6.90465 14.318 6.90465 14.318 6.90465 14.318C6.90465 14.318 6.90465 14.318 6.90465 14.318C6.90465 14.318 6.90465 14.318 6.90465 14.318C6.90465 14.318 6.90465 14.318 6.90465 14.318C6.90465 14.318 6.90465 14.318 6.90465 14.318C6.90465 14.318 6.90465 14.318 6.90466 14.318C6.90466 14.318 6.90466 14.318 6.90466 14.318C6.90466 14.318 6.90466 14.318 6.90466 14.318C6.90466 14.318 6.90466 14.318 6.90466 14.318C6.90466 14.318 6.90466 14.318 6.90466 14.318C6.90466 14.318 6.90466 14.318 6.90466 14.318C6.90466 14.318 6.90466 14.318 6.90466 14.318C6.90466 14.318 6.90466 14.318 6.90466 14.318C6.90466 14.318 6.90466 14.318 6.90466 14.318C6.90466 14.318 6.90466 14.318 6.90466 14.318C6.90466 14.318 6.90466 14.318 6.90466 14.318C6.90466 14.318 6.90467 14.318 6.90467 14.318C6.90467 14.318 6.90467 14.318 6.90467 14.318C6.90467 14.318 6.90467 14.318 6.90467 14.318C6.90467 14.318 6.90467 14.318 6.90467 14.318C6.90467 14.318 6.90467 14.318 6.90467 14.318L4.34393 11.2451ZM4.28049 11.3058C4.30715 11.2781 4.33802 11.2494 4.37462 11.2201L6.87399 14.3431C6.97943 14.2587 7.07548 14.17 7.16172 14.0804L4.28049 11.3058ZM7.33779 13.8705L15.4254 2.76567L12.1921 0.410816L4.10442 11.5157L7.33779 13.8705ZM12.1913 0.411897L4.20519 11.3927L7.44014 13.7454L15.4262 2.76459L12.1913 0.411897Z" transform="translate(12.5 21.5)" fill="white" mask="url(#path-3-outside-1)"/>
</svg>
