<svg width="87" height="87" viewBox="0 0 87 87" fill="none" xmlns="http://www.w3.org/2000/svg">
<path fill-rule="evenodd" clip-rule="evenodd" d="M81.3575 2.32926L85.3575 9.25826C85.9085 10.2133 85.5795 11.4383 84.6255 11.9893L80.2946 14.4883L81.7955 17.0873C82.6245 18.5243 82.1335 20.3563 80.6965 21.1863L78.2115 22.6193C80.5405 27.8473 77.4435 33.8063 71.9716 35.0413C71.5675 50.8923 58.823 63.486 43 64.008L42.9995 85H58.9995C60.3225 85 60.3205 87 58.9995 87H24.9995C23.6765 87 23.6785 85 24.9995 85H40.9995L41 64C31.184 63.676 22.5495 58.583 17.3105 51H0.991516C-0.331482 51 -0.329529 49 0.991516 49H35.9915C37.3145 49 37.3125 51 35.9915 51H19.7765C24.8985 57.678 32.953 62.033 42 62.033C57.105 62.033 69.4375 50.2443 69.9666 35.2663C66.9905 35.2573 64.3565 33.7933 62.7235 31.5533L51.2235 38.1873C49.7935 39.0113 47.9545 38.5233 47.1265 37.0883L45.6265 34.4913L41.2955 36.9903C40.3365 37.5433 39.1125 37.2093 38.5635 36.2583L34.5635 29.3303C34.0095 28.3713 34.3405 27.1493 35.2965 26.5983L39.6265 24.0993L38.1255 21.5003C37.2975 20.0673 37.7845 18.2333 39.2245 17.4013L68.6975 0.40026C70.1275 -0.424744 71.9666 0.0662606 72.7946 1.49926L74.2946 4.09626L78.6265 1.59726C79.5795 1.04626 80.8055 1.37426 81.3575 2.32926ZM36.2955 28.3303L40.2955 35.2583L44.6265 32.7593L40.6265 25.8313L36.2955 28.3303ZM63.8985 29.7013C65.1015 31.8273 67.3795 33.2673 69.9915 33.2673C75.3955 33.2673 78.7745 27.3643 76.0075 22.7073C74.7015 20.5063 72.3505 19.2673 69.9915 19.2673C64.6665 19.2673 61.2585 25.0283 63.8985 29.7013ZM77.2005 20.8933L79.6965 19.4533C80.1755 19.1773 80.3395 18.5663 80.0635 18.0863L71.0635 2.49826C70.7925 2.02926 70.1845 1.85226 69.6975 2.13225L40.2235 19.1343C39.7445 19.4103 39.5815 20.0213 39.8575 20.5003C42.4665 25.0203 48.8575 36.0893 48.8575 36.0893C49.1335 36.5663 49.7445 36.7283 50.2235 36.4553L61.7255 29.8203C57.4945 20.0153 70.8895 12.4583 77.2005 20.8933ZM75.2946 5.82825L79.2946 12.7563L83.6255 10.2573L79.6255 3.32926L75.2946 5.82825ZM69.9915 28.2673C71.0965 28.2673 71.9915 27.3723 71.9915 26.2673C71.9915 25.1623 71.0965 24.2673 69.9915 24.2673C68.8865 24.2673 67.9915 25.1623 67.9915 26.2673C67.9915 27.3723 68.8865 28.2673 69.9915 28.2673Z" transform="translate(1)" fill="#DE7900"/>
<path d="M15.156 30.96C12.108 30.96 9.432 30.324 7.128 29.052C4.848 27.78 3.084 25.992 1.836 23.688C0.612 21.36 0 18.684 0 15.66C0 12.54 0.66 9.804 1.98 7.452C3.3 5.076 5.112 3.24 7.416 1.944C9.72 0.647999 12.288 0 15.12 0C18.192 0 20.808 0.647999 22.968 1.944C25.152 3.216 26.784 4.86 27.864 6.876C28.968 8.868 29.52 10.956 29.52 13.14C29.52 15.564 29.16 17.532 28.44 19.044C27.72 20.556 26.82 21.636 25.74 22.284C24.66 22.932 23.532 23.256 22.356 23.256C21.06 23.256 20.052 22.98 19.332 22.428C18.612 21.852 18.24 21.048 18.216 20.016H18.144C17.568 21 16.8 21.792 15.84 22.392C14.904 22.968 13.836 23.256 12.636 23.256C11.124 23.256 9.876 22.716 8.892 21.636C7.908 20.532 7.416 18.996 7.416 17.028C7.416 15.42 7.728 13.896 8.352 12.456C9 11.016 9.9 9.852 11.052 8.964C12.204 8.076 13.536 7.632 15.048 7.632C16.224 7.632 17.244 7.92 18.108 8.496C18.972 9.072 19.524 9.804 19.764 10.692H19.8L20.124 8.784C20.172 8.544 20.28 8.364 20.448 8.244C20.64 8.1 20.868 8.028 21.132 8.028C21.444 8.028 21.672 8.124 21.816 8.316C21.984 8.508 22.044 8.772 21.996 9.108L20.412 18.18C20.34 18.636 20.304 19.044 20.304 19.404C20.304 20.22 20.496 20.796 20.88 21.132C21.288 21.468 21.888 21.636 22.68 21.636C23.424 21.636 24.168 21.36 24.912 20.808C25.68 20.256 26.316 19.344 26.82 18.072C27.348 16.8 27.612 15.156 27.612 13.14C27.612 11.292 27.144 9.504 26.208 7.776C25.296 6.048 23.892 4.632 21.996 3.528C20.124 2.4 17.832 1.836 15.12 1.836C12.624 1.836 10.368 2.4 8.352 3.528C6.36 4.656 4.788 6.264 3.636 8.352C2.484 10.44 1.908 12.876 1.908 15.66C1.908 18.372 2.436 20.748 3.492 22.788C4.548 24.804 6.072 26.364 8.064 27.468C10.056 28.572 12.42 29.124 15.156 29.124C17.124 29.124 18.84 28.836 20.304 28.26C21.792 27.684 23.016 26.88 23.976 25.848C24.312 25.512 24.648 25.344 24.984 25.344C25.224 25.344 25.428 25.44 25.596 25.632C25.764 25.824 25.848 26.052 25.848 26.316C25.848 26.628 25.728 26.904 25.488 27.144C24.336 28.344 22.872 29.28 21.096 29.952C19.32 30.624 17.34 30.96 15.156 30.96ZM13.032 21.636C14.304 21.636 15.396 21.252 16.308 20.484C17.244 19.716 17.952 18.732 18.432 17.532C18.936 16.308 19.188 15.024 19.188 13.68C19.188 12.264 18.828 11.184 18.108 10.44C17.412 9.672 16.452 9.288 15.228 9.288C14.028 9.288 12.972 9.66 12.06 10.404C11.172 11.124 10.488 12.072 10.008 13.248C9.528 14.4 9.288 15.612 9.288 16.884C9.288 18.396 9.648 19.572 10.368 20.412C11.088 21.228 11.976 21.636 13.032 21.636Z" transform="translate(0.835999 13.94)" fill="#DE7900"/>
</svg>
